<?xml version="1.0" encoding="iso-8859-1"?>
<!-- Uploaded to: SVG Repo, www.svgrepo.com, Generator: SVG Repo Mixer Tools -->
<svg fill="#ec96a4" version="1.1" id="Layer_1" xmlns="http://www.w3.org/2000/svg" xmlns:xlink="http://www.w3.org/1999/xlink"
	 viewBox="0 0 290.627 290.627" xml:space="preserve">
<g>
	<g>
		<g>
			<rect x="137.233" y="4.688" width="9.375" height="281.25"/>
			<path d="M66.92,65.625c18.089,0,32.813-14.723,32.813-32.813C99.733,14.722,85.009,0,66.92,0S34.108,14.723,34.108,32.813
				C34.108,50.903,48.832,65.625,66.92,65.625z M66.92,9.375c12.923,0,23.438,10.514,23.438,23.438S79.843,56.25,66.92,56.25
				c-12.923,0-23.438-10.514-23.438-23.437C43.483,19.89,53.996,9.375,66.92,9.375z"/>
			<path d="M91.043,70.313H42.798c-15.131,0-27.441,12.309-27.441,27.441c0,4.228,1.003,8.475,2.897,12.272l15.853,31.706v36.394
				L47.86,224.64l-12.952,42.563c-1.688,5.555-0.68,11.419,2.78,16.083c3.459,4.664,8.77,7.341,14.573,7.341
				c5.887,0,11.184-2.789,14.527-7.294c3.38,4.505,8.728,7.294,14.587,7.294c5.85,0,11.203-2.7,14.681-7.406
				c3.473-4.706,4.481-10.613,2.761-16.2l-13.031-42.356l13.748-45.173l0.197-37.748l15.858-31.716
				c1.889-3.797,2.892-8.039,2.892-12.272C118.483,82.622,106.173,70.313,91.043,70.313z M89.856,269.775
				c0.839,2.719,0.347,5.587-1.341,7.875c-1.692,2.288-4.294,3.6-7.139,3.6c-3.82,0-7.2-2.438-8.414-6.066l-1.336-4.008
				l9.277-30.488L89.856,269.775z M90.358,177.431l-29.709,97.603c-1.13,3.717-4.5,6.216-8.386,6.216
				c-2.808,0-5.372-1.289-7.041-3.548c-1.669-2.259-2.161-5.086-1.341-7.772l27.525-90.441l-8.972-2.728l-9.647,31.692
				l-9.305-31.012v-16.959l1.706,3.413c2.939,5.887,8.859,9.544,15.441,9.544c2.17,0,4.303-0.403,6.291-1.172
				c1.969,0.764,4.092,1.172,6.291,1.172c6.581,0,12.502-3.656,15.441-9.544l1.706-3.417V177.431z M107.199,105.834l-26.934,53.864
				c-1.345,2.695-4.05,4.364-7.055,4.364c-2.798,0-5.241-1.364-6.713-3.745c-1.467-2.377-1.598-5.175-0.347-7.673l23.714-47.423
				l-8.386-4.195L66.92,130.145L52.366,101.03l-8.386,4.195l17.7,35.4l-3.914,7.828c-2.386,4.772-2.437,10.242-0.22,14.986
				c-1.692-0.712-3.108-2.02-3.97-3.741l-26.934-53.859c-1.247-2.503-1.908-5.302-1.908-8.086c0-9.961,8.105-18.066,18.066-18.066
				h48.239c9.966,0,18.07,8.105,18.07,18.066C109.108,100.537,108.446,103.336,107.199,105.834z"/>
			<path d="M265.585,110.025c1.894-3.797,2.897-8.039,2.897-12.272c0-15.131-12.309-27.441-27.441-27.441h-48.244
				c-15.131,0-27.441,12.309-27.441,27.441c0,4.228,1.003,8.475,2.897,12.272l15.506,31.013l-20.063,65.212h30.628l3.619,18.103
				l-13.041,42.848c-1.688,5.555-0.68,11.419,2.78,16.083c3.459,4.664,8.775,7.341,14.578,7.341c5.887,0,11.184-2.789,14.527-7.294
				c3.38,4.505,8.728,7.294,14.588,7.294c5.85,0,11.203-2.7,14.681-7.406c3.473-4.706,4.481-10.613,2.761-16.2l-13.031-42.356
				l5.602-18.412h28.754v-0.001l-20.063-65.212L265.585,110.025z M176.641,105.84c-1.248-2.504-1.909-5.303-1.909-8.087
				c0-9.961,8.105-18.066,18.066-18.066h48.239c9.966,0,18.07,8.105,18.07,18.066c0,2.784-0.661,5.578-1.908,8.081l-26.934,53.864
				c-1.345,2.695-4.05,4.364-7.055,4.364c-2.798,0-5.241-1.364-6.712-3.745c-1.467-2.377-1.598-5.175-0.347-7.673l23.714-47.423
				l-8.386-4.195l-14.559,29.119l-14.555-29.114l-8.386,4.195l17.7,35.4l-3.914,7.828c-2.386,4.772-2.438,10.242-0.22,14.986
				c-1.692-0.712-3.108-2.02-3.97-3.741L176.641,105.84z M239.856,269.775c0.839,2.719,0.347,5.587-1.341,7.875
				c-1.692,2.288-4.294,3.6-7.139,3.6c-3.82,0-7.2-2.438-8.414-6.066l-1.336-4.008l9.277-30.488L239.856,269.775z M257.449,196.874
				h-23.011l-23.789,78.159c-1.13,3.719-4.5,6.217-8.386,6.217c-2.808,0-5.372-1.289-7.041-3.548
				c-1.669-2.259-2.161-5.086-1.341-7.772l27.525-90.441l-8.972-2.728l-8.719,28.641l-1.706-8.527h-25.622l13.444-43.692
				l5.353,10.706c2.944,5.892,8.864,9.548,15.445,9.548c2.17,0,4.303-0.403,6.291-1.172c1.969,0.764,4.092,1.172,6.291,1.172
				c6.581,0,12.502-3.656,15.441-9.544l5.353-10.711L257.449,196.874z"/>
			<path d="M268.483,27.019v-9.075C268.483,8.053,260.43,0,250.54,0c-4.791,0-9.3,1.866-12.689,5.255l-1.317,1.317
				C231.053,2.466,224.28,0,216.921,0s-14.133,2.466-19.612,6.572l-1.317-1.317C192.606,1.866,188.097,0,183.301,0
				c-9.891,0-17.944,8.053-17.944,17.944v9.075c0,4.678-2.602,8.888-6.783,10.978l4.195,8.386
				c7.373-3.698,11.962-11.119,11.962-19.364v-9.075c0-4.725,3.844-8.569,8.569-8.569c2.255,0,4.467,0.914,6.061,2.508l1.317,1.317
				c-4.106,5.48-6.572,12.253-6.572,19.612c0,18.089,14.723,32.813,32.813,32.813s32.813-14.723,32.813-32.813
				c0-7.359-2.466-14.133-6.572-19.612l1.317-1.317c1.594-1.594,3.802-2.508,6.061-2.508c4.725,0,8.569,3.844,8.569,8.569v9.075
				c0,8.25,4.589,15.67,11.967,19.364l4.195-8.386C271.085,35.902,268.483,31.697,268.483,27.019z M216.921,56.25
				c-12.923,0-23.438-10.514-23.438-23.438s10.514-23.438,23.438-23.438s23.438,10.514,23.438,23.438S229.843,56.25,216.921,56.25z"
				/>
		</g>
	</g>
</g>
</svg>